<?xml version="1.0" encoding="iso-8859-1"?>
<!-- Uploaded to: SVG Repo, www.svgrepo.com, Generator: SVG Repo Mixer Tools -->
<!DOCTYPE svg PUBLIC "-//W3C//DTD SVG 1.1//EN" "http://www.w3.org/Graphics/SVG/1.1/DTD/svg11.dtd">
<svg fill="#000000" version="1.1" id="Capa_1" xmlns="http://www.w3.org/2000/svg" xmlns:xlink="http://www.w3.org/1999/xlink" 
	 width="800px" height="800px" viewBox="0 0 30.462 30.461"
	 xml:space="preserve">
<g>
	<g>
		<path d="M26.717,4.504H5.248c-1.889,0-3.786,1.409-3.786,3.027v13.011c0,0.067-0.006,0.001,0,0.067L0,25.958l5.113-2.443
			c0.033,0,0.102-0.01,0.135-0.01h21.469c1.889,0,3.745-1.344,3.745-2.962V7.531C30.462,5.914,28.605,4.504,26.717,4.504z
			 M27.462,20.542c0,0.54-0.114,0.962-0.745,0.962H5.248c-0.631,0-0.786-0.422-0.786-0.962V7.531c0-0.54,0.155-1.027,0.786-1.027
			h21.469c0.631,0,0.745,0.487,0.745,1.027V20.542z"/>
		<path d="M25.059,10.504H6.93c-0.532,0-0.963,0.406-0.963,1s0.431,1,0.963,1h18.128c0.53,0,0.963-0.406,0.963-1
			S25.59,10.504,25.059,10.504z"/>
		<path d="M25.238,15.504H10.526c-0.432,0-0.782,0.406-0.782,1c0,0.593,0.35,1,0.782,1h14.712c0.434,0,0.783-0.407,0.783-1
			C26.021,15.911,25.672,15.504,25.238,15.504z"/>
	</g>
</g>
</svg>